# xmcd CD database file
#
# Track frame offsets:
#	150
#	9628
#	20265
#	36101
#	48781
#	65784
#	84521
#	96411
#	110167
#	118189
#	133658
#	145799
#	155570
#	167215
#	183078
#	199006
#	211096
#	222448
#
# Disc length: 3144 seconds
#
# Revision: 0
# Processed by: cddbd v1.5PL3 Copyright (c) Steve Scherf et al.
# Submitted via: CDex 1.51
#
DISCID=030c4612
DTITLE=Nev Nicholls - Oh! What A Beauty
DYEAR=2000
DGENRE=Country
TTITLE0=Do You Go All The Way?
TTITLE1=Don't Roll Those Bloodshot Eyes At Me
TTITLE2=She ain't dealin' With A Full Deck
TTITLE3=I Like Beer
TTITLE4=Drink up
TTITLE5=Girls Bring Us Undone
TTITLE6=Thw Beers Away
TTITLE7=Livin' On The Dole
TTITLE8=The Tilt In His Kilt
TTITLE9=Cigareetes, Whusky And Wild Wild Women
TTITLE10=I Want One
TTITLE11=It Takes A Drinking Man
TTITLE12=Jessie
TTITLE13=Pretty Girl
TTITLE14=I Wish I Could Sing Like Jogn Laws
TTITLE15=Money
TTITLE16=Oh! What A Beauty
TTITLE17=100lbs Of Dynamite
EXTD=YEAR: 2000
EXTT0=
EXTT1=
EXTT2=
EXTT3=
EXTT4=
EXTT5=
EXTT6=
EXTT7=
EXTT8=
EXTT9=
EXTT10=
EXTT11=
EXTT12=
EXTT13=
EXTT14=
EXTT15=
EXTT16=
EXTT17=
PLAYORDER=
